<svg width="38" height="32" viewBox="0 0 38 32" fill="none" xmlns="http://www.w3.org/2000/svg">
<path d="M36.7913 11.8001V20.3896C36.8069 20.6605 36.7455 20.9302 36.6142 21.1676C36.483 21.405 36.2872 21.6004 36.0496 21.7313L21.1955 30.1146C20.5417 30.4832 19.8041 30.6773 19.0536 30.6784C18.3031 30.6795 17.5649 30.4875 16.91 30.1209L1.95796 21.7334C1.71566 21.6 1.517 21.3995 1.38581 21.1559C1.25463 20.9124 1.19649 20.6362 1.21837 20.3605V11.8292C1.19697 11.5577 1.25317 11.2856 1.38042 11.0448C1.50767 10.8039 1.70073 10.6042 1.93712 10.4688L16.8455 1.77714C17.5153 1.38749 18.2766 1.18274 19.0515 1.18384C19.8264 1.18494 20.5871 1.39184 21.2559 1.78339L36.0725 10.4709C36.3035 10.6042 36.4929 10.7991 36.6195 11.0338C36.746 11.2685 36.8048 11.5338 36.7892 11.8001H36.7913Z" stroke="#1F1F1F" stroke-width="1.6"/>
<path d="M1.95764 12.9959C1.73408 12.8702 1.54765 12.6878 1.41723 12.467C1.28681 12.2462 1.21701 11.9948 1.21489 11.7384C1.21278 11.4819 1.27842 11.2295 1.40519 11.0066C1.53196 10.7836 1.71535 10.5981 1.93681 10.4688L16.8472 1.77714C17.5168 1.38788 18.2777 1.18335 19.0522 1.18445C19.8267 1.18555 20.5871 1.39224 21.2556 1.78339L36.0722 10.4709C36.2932 10.6003 36.4761 10.7858 36.6026 11.0085C36.729 11.2312 36.7944 11.4833 36.7923 11.7394C36.7902 11.9955 36.7206 12.2465 36.5905 12.4671C36.4604 12.6877 36.2745 12.8701 36.0514 12.9959L21.1931 21.3771C20.5395 21.7453 19.8023 21.9392 19.0522 21.9403C18.3021 21.9414 17.5643 21.7496 16.9097 21.3834L1.95764 12.9959Z" stroke="#1F1F1F" stroke-width="1.6"/>
</svg>
