<svg width="16" height="17" viewBox="0 0 16 17" fill="none" xmlns="http://www.w3.org/2000/svg">
<path d="M3.44 5.3092C4.24 5.3092 4.88 4.6592 4.88 3.8692C4.88 3.0792 4.23 2.4292 3.44 2.4292C2.65 2.4292 2 3.0792 2 3.8692C2 4.6592 2.65 5.3092 3.44 5.3092ZM6.25 6.3992V14.4192H8.73V10.4592C8.73 9.4092 8.93 8.3992 10.22 8.3992C11.51 8.3992 11.51 9.5992 11.51 10.5192V14.4192H14V10.0192C14 7.8592 13.54 6.1992 11.02 6.1992C9.81 6.1992 9 6.8592 8.67 7.4892H8.64V6.3892H6.26L6.25 6.3992ZM2.2 6.3992H4.69V14.4192H2.2V6.3992Z" fill="#6F6F6F"/>
</svg>
