<svg width="23" height="17" viewBox="0 0 23 17" fill="none" xmlns="http://www.w3.org/2000/svg">
<g clip-path="url(#clip0_1_92)">
<path d="M6.71878 14.1807L6.14453 13.1518L12.8346 0.844L14.0578 0.869851L6.71878 14.1807Z" fill="#FB3B33"/>
<path d="M9.23879 16.5616L8.01562 16.5358L15.4061 3.32572L15.9546 4.37787L9.23879 16.5616Z" fill="#FB3B33"/>
<path d="M15.5456 4.2771L13.8383 1.99183C13.6477 1.7359 13.3413 1.59889 13.0245 1.61699C12.7078 1.63767 12.422 1.82121 12.2675 2.10041L6.5765 12.3841C6.42715 12.6555 6.41942 12.9838 6.55848 13.263L7.69667 15.5483C7.8486 15.8533 8.15504 16.055 8.49495 16.0679C8.50782 16.0679 8.5207 16.0679 8.53615 16.0679C8.86319 16.0679 9.16705 15.8973 9.337 15.6181L15.5971 5.33442C15.7979 5.0061 15.7773 4.58731 15.5456 4.2771Z" fill="#FB3B33"/>
<path d="M9.23943 16.5617H6.06692C4.96735 16.5617 3.97079 15.9593 3.44547 15.008L0 8.81401L4.29526 0.84403H9.23943L4.89525 8.7649L9.23943 16.5617ZM1.22317 8.81401L4.36993 14.5039C4.72015 15.1295 5.36907 15.5069 6.06692 15.5069H7.41627L3.66951 8.79075L7.41627 1.94788H4.94418L1.22317 8.81401Z" fill="#1F1F1F"/>
<path d="M17.7524 16.5616H12.834L17.1782 8.7416L12.834 0.844H16.1559C17.155 0.844 18.0794 1.39463 18.5533 2.27358L22.0734 8.81657L17.7524 16.5616ZM14.6571 15.4836H17.1292L20.8502 8.79072L17.6031 2.7751C17.3043 2.24773 16.7533 1.89874 16.1559 1.89874H14.6571L18.4013 8.7416L14.6571 15.4836Z" fill="#1F1F1F"/>
</g>
<defs>
<clipPath id="clip0_1_92">
<rect width="22.0737" height="15.7176" fill="white" transform="translate(0 0.84403)"/>
</clipPath>
</defs>
</svg>
