<svg width="31" height="39" viewBox="0 0 31 39" fill="none" xmlns="http://www.w3.org/2000/svg">
<path d="M14.9941 38.5521C14.0663 38.5521 13.2746 38.2222 12.6191 37.5625C11.9635 36.9042 11.6358 36.1125 11.6358 35.1875H18.3649C18.3649 36.1181 18.0351 36.9118 17.3753 37.5687C16.7142 38.2243 15.9205 38.5521 14.9941 38.5521ZM1.45867 33.1021C1.16284 33.1021 0.915618 33.0021 0.717007 32.8021C0.518395 32.6021 0.418395 32.3542 0.417006 32.0583C0.415618 31.7625 0.515618 31.5153 0.717007 31.3167C0.918395 31.1181 1.16562 31.0187 1.45867 31.0187H3.78367V14.5125C3.78367 11.7903 4.64478 9.39653 6.36701 7.33125C8.08923 5.26597 10.2726 3.97917 12.917 3.47083V2.33333C12.917 1.75417 13.1191 1.2625 13.5233 0.858333C13.9274 0.452778 14.4184 0.25 14.9962 0.25C15.5739 0.25 16.0663 0.452778 16.4733 0.858333C16.8802 1.26389 17.0837 1.75556 17.0837 2.33333V2.48958C16.7823 2.96042 16.5184 3.43472 16.292 3.9125C16.0656 4.39028 15.8885 4.89861 15.7608 5.4375L15.3899 5.39583C15.2691 5.38472 15.1392 5.37917 15.0003 5.37917C12.4684 5.37917 10.3128 6.26806 8.53367 8.04583C6.75451 9.82361 5.86562 11.9792 5.86701 14.5125V31.0187H24.1358V18.3562C24.4663 18.4187 24.8073 18.4681 25.1587 18.5042C25.5101 18.5403 25.8628 18.5451 26.217 18.5187V31.0187H28.542C28.8378 31.0187 29.0851 31.1187 29.2837 31.3187C29.4837 31.5187 29.5837 31.7667 29.5837 32.0625C29.5837 32.3583 29.4837 32.6056 29.2837 32.8042C29.0837 33.0028 28.8364 33.1021 28.542 33.1021H1.45867ZM25.342 13.5917C23.8962 13.5917 22.6656 13.0854 21.6503 12.0729C20.6351 11.0604 20.1281 9.83194 20.1295 8.3875C20.1309 6.94306 20.6364 5.7125 21.6462 4.69583C22.6559 3.67917 23.8851 3.17222 25.3337 3.175C26.7823 3.17778 28.0114 3.68333 29.0212 4.69167C30.0309 5.7 30.5392 6.92917 30.5462 8.37917C30.5531 9.82917 30.0469 11.059 29.0274 12.0688C28.008 13.0785 26.7788 13.5854 25.3399 13.5896" fill="#1F1F1F"/>
</svg>
