<svg width="140" height="52" viewBox="0 0 140 52" fill="none" xmlns="http://www.w3.org/2000/svg">
<path d="M5.21541e-08 51.93V44.58L21.56 25.365C23.24 23.8717 24.4067 22.46 25.06 21.13C25.7133 19.8 26.04 18.5167 26.04 17.28C26.04 15.6 25.6783 14.1067 24.955 12.8C24.2317 11.47 23.2283 10.42 21.945 9.65C20.685 8.88 19.2267 8.495 17.57 8.495C15.82 8.495 14.2683 8.90333 12.915 9.72C11.585 10.5133 10.5467 11.575 9.8 12.905C9.05333 14.235 8.70333 15.67 8.75 17.21H0.0700002C0.0700002 13.85 0.816667 10.9217 2.31 8.425C3.82667 5.92833 5.90333 3.99166 8.54 2.615C11.2 1.23833 14.2683 0.549999 17.745 0.549999C20.965 0.549999 23.8583 1.27333 26.425 2.72C28.9917 4.14333 31.01 6.12666 32.48 8.67C33.95 11.19 34.685 14.095 34.685 17.385C34.685 19.7883 34.3583 21.8067 33.705 23.44C33.0517 25.0733 32.0717 26.5783 30.765 27.955C29.4817 29.3317 27.8833 30.86 25.97 32.54L10.675 46.085L9.905 43.985H34.685V51.93H5.21541e-08ZM61.262 52V43.67H38.932V35.795L55.067 1.6H64.692L48.557 35.795H61.262V22.67H69.802V35.795H74.527V43.67H69.802V52H61.262ZM94.2599 1.6H102.73L89.2899 52H80.8199L94.2599 1.6ZM112.958 52L130.318 9.58H108.303V1.6H139.348V9.58L122.058 52H112.958Z" fill="#1F1F1F"/>
</svg>
